<svg width="82" height="82" viewBox="0 0 82 82" fill="none" xmlns="http://www.w3.org/2000/svg">
<circle cx="41" cy="41" r="41" fill="black"/>
<path d="M38.68 44.2L25.16 44.28C25.0533 44.28 25 44.2267 25 44.12L25 43.04C25 42.9333 25.0533 42.88 25.16 42.88L38.68 42.96L39.56 42.96L39.56 25.32L38.68 25.32L25.16 25.4C25.0533 25.4 25 25.3467 25 25.24L25 24.16C25 24.0533 25.0533 24 25.16 24L38.68 24.08L52.84 24C52.9467 24 53 24.0533 53 24.16L53 25.24C53 25.3467 52.9467 25.4 52.84 25.4L40.68 25.34L40.68 42.94L52.84 42.88C52.9467 42.88 53 42.9333 53 43.04L53 44.12C53 44.2267 52.9467 44.28 52.84 44.28L38.68 44.2Z" fill="white"/>
<path d="M25 43.0599C25 42.9532 25.0533 42.8999 25.16 42.8999L39.84 42.9799L52.84 42.8999C52.9467 42.8999 53 42.9532 53 43.0599L53 51.0999C53 53.7532 52.4267 56.0999 51.28 58.1399C50.1333 60.1799 48.52 61.7599 46.44 62.8799C44.36 64.0132 41.96 64.5799 39.24 64.5799C36.2933 64.5799 33.74 63.9666 31.58 62.7399C29.4333 61.5266 27.8 59.8999 26.68 57.8599C25.56 55.8199 25 53.5932 25 51.1799L25 43.0599ZM39.84 44.2999L26.12 44.3799L26.12 51.4999C26.12 53.4066 26.5933 55.2532 27.54 57.0399C28.5 58.8266 29.96 60.2932 31.92 61.4399C33.8933 62.5999 36.32 63.1799 39.2 63.1799C41.8933 63.1799 44.1933 62.6466 46.1 61.5799C48.0067 60.5132 49.4467 59.0799 50.42 57.2799C51.3933 55.4932 51.88 53.5132 51.88 51.3399L51.88 44.3799L39.84 44.2999Z" fill="white"/>
<path d="M39.55 24.2341C39.55 24.1274 39.6034 24.0741 39.71 24.0741L55.0001 24L67.39 24C67.4967 24 67.55 24.0533 67.55 24.16L67.55 25.24C67.55 25.3467 67.4967 25.4 67.39 25.4L55.0001 25.4L40.67 25.3468L40.67 39C40.67 39.1067 40.6167 39.16 40.51 39.16L39.71 39.16C39.6034 39.16 39.55 39.1067 39.55 39L39.55 24.2341Z" fill="white"/>
</svg>
